v 3.04552 -6.6802 16.0756
v 3.45389 -6.6802 18.0843
v 0.717431 -6.6802 18.3978
v 6.09717 -6.6802 17.379
v 5.02484 -6.6802 15.3515
v 0.931419 -6.6802 16.1367
v 3.89348 -6.6802 13.8136
v 7.0631 -6.6802 14.1379
v 8.75335 -6.6802 16.2002
v -0.557519 -6.6802 13.6195
v 0.516255 -6.6802 11.6894
v 1.37652 -6.6802 14.3012
v -1.41388 -6.6802 15.7722
v -2.15995 -6.6802 18.2883
v -1.49722 -6.6802 10.6021
v 11.1858 -6.6802 14.6236
v -3.86951 -6.6802 15.0445
v -5.04724 -6.6802 17.7114
v 5.76814 -6.6802 3.94039
v 7.91038 -6.6802 5.33212
v 6.52633 -6.6802 7.37006
v -2.93892 -6.6802 4.006
v -3.63304 -6.6802 0.680212
v -1.64697 -6.6802 1.98975
v -6.3078 -6.6802 13.979
v -8.63321 -6.6802 12.6039
v -7.81596 -6.6802 16.6724
v -10.4074 -6.6802 15.1883
v 10.9243 -6.6802 10.6236
v 15.3631 -6.6802 10.1458
v 13.3679 -6.6802 12.6591
v 13.9694 -6.6802 5.99803
v 16.8077 -6.6802 7.51357
v 12.6048 -6.6802 8.39216
v -10.7544 -6.6802 10.9722
v -9.08493 -6.6802 8.79348
v -12.814 -6.6802 2.58376
v -14.3676 -6.6802 1.61273
v -11.8163 -6.6802 0.765313
v 14.9985 -6.6802 3.50361
v 12.55 -6.6802 2.31544
v 13.4039 -6.6802 0.0959626
v 17.8011 -6.6802 4.69937
v 10.5535 -6.6802 -4.24843
v 8.62684 -6.6802 -5.67516
v 11.8738 -6.6802 -6.11763
v -12.6011 -6.6802 9.16066
v -14.5633 -6.6802 11.2659
v -14.1643 -6.6802 7.19832
v -15.3577 -6.6802 5.2083
v -14.7748 -6.6802 2.9899
v -13.8716 -6.6802 4.09309
v -16.0852 -6.6802 3.26397
v -16.1698 -6.6802 1.17423
v -16.1586 -6.6802 8.83395
v -17.31 -6.6802 6.2779
v 0.854231 -6.6802 -12.6024
v 0.142537 -6.6802 -10.3916
v -1.42273 -6.6802 -12.9821
v 15.8113 -6.6802 -3.7269
v 17.9168 -6.6802 -4.2507
v 18.3752 -6.6802 -1.19593
v 15.6733 -6.6802 1.0017
v 15.9726 -6.6802 -1.462
v -8.82157 -6.6802 -12.5509
v -8.80011 -6.6802 -8.83104
v -10.8648 -6.6802 -10.6669
v -18.0386 -6.6802 3.68347
v 18.3184 -6.6802 1.86924
v -12.6581 -6.6802 -8.42725
v -15.3241 -6.6802 -10.2042
v 14.9447 -6.6802 -5.78951
v 15.6572 -6.6802 -9.69332
v 17.0408 -6.6802 -6.98296
v -15.1381 -6.6802 -3.56873
v -17.807 -6.6802 -4.67635
v -16.815 -6.6802 -7.49717
v -14.081 -6.6802 -6.03306
v -13.1793 -6.6802 -12.8585
v -10.8421 -6.6802 -14.8823
v -7.87413 -6.6802 -16.6463
v -1.35616 -6.6802 -15.3916
v -4.63329 -6.6802 -17.8181
v -1.49042 -6.6802 -18.3503
v 9.38575 -6.6802 -11.8411
v 11.1168 -6.6802 -14.6755
v 11.6673 -6.6802 -9.94351
v 13.5357 -6.6802 -7.88599
v 13.7328 -6.6802 -12.2731
v -6.49006 -6.6802 -14.0577
v -3.98148 -6.6802 -15.0346
v 2.17282 -6.6802 -18.2865
v 4.20879 -6.6802 -14.5162
v 5.27095 -6.6802 -17.6432
v 8.27407 -6.6802 -16.4478
v 1.46992 -6.6802 -15.1991
v -2.37149 -6.6802 -1.31923
v -0.37909 -6.6802 -0.0257245
v 1.63992 -6.6802 1.27607
v -1.13478 -6.6802 -3.31432
v 3.68617 -6.6802 2.59465
v 7.03034 -6.6802 1.87381
v 0.861852 -6.6802 -2.04915
v 2.8893 -6.6802 -0.762991
v 4.94244 -6.6802 0.546171
v -10.7537 -6.6802 -1.22719
v -7.5664 -6.6802 -1.95349
v -8.79133 -6.6802 0.0444994
v 4.44514 -6.6802 5.96151
v 2.39387 -6.6802 4.61626
v -4.33955 -6.6802 -2.61661
v -6.2968 -6.6802 -3.93946
v -3.09062 -6.6802 -4.57413
v 0.362841 -6.6802 3.29882
v 9.37888 -6.6802 -2.26467
v -0.935605 -6.6802 5.31337
v 5.32581 -6.6802 -4.92201
v 6.16381 -6.6802 -1.52065
v 4.11269 -6.6802 -2.82477
v 0.0606671 -6.6802 -5.31429
v 2.07168 -6.6802 -4.09326
v -12.8291 -6.6802 -2.43297
v -9.57827 -6.6802 -3.2853
v 9.18452 -6.6802 3.21705
v 7.8915 -6.6802 -9.35909
v 4.41532 -6.6802 -8.37356
v 5.60027 -6.6802 -10.7388
v 7.37384 -6.6802 -3.59562
v 10.3306 -6.6802 1.0795
v 8.22592 -6.6802 -0.208003
v -6.88364 -6.6802 -7.25585
v -3.73336 -6.6802 -7.6952
v -5.0011 -6.6802 -5.86616
v 1.19267 -6.6802 -7.35002
v 3.25137 -6.6802 -6.18471
v -2.24765 -6.6802 7.33859
v -3.57009 -6.6802 9.41182
v 7.05598 -6.6802 10.7966
v 5.41683 -6.6802 12.4545
v 5.08229 -6.6802 9.28901
v 11.4666 -6.6802 4.58292
v -9.46418 -6.6802 5.28076
v -8.13404 -6.6802 3.33322
v -7.59969 -6.6802 6.71968
v 1.75927 -6.6802 9.8177
v 3.65467 -6.6802 11.0699
v 3.09197 -6.6802 7.9196
v -9.98562 -6.6802 2.00178
v -4.9146 -6.6802 2.68416
v -6.85989 -6.6802 1.35714
v -5.59972 -6.6802 -0.633189
v -13.7121 -6.6802 -0.296839
v -8.28037 -6.6802 -5.32134
v 6.56487 -6.6802 -7.08245
v 10.0149 -6.6802 -7.77385
v -3.09856 -6.6802 -11.4684
v -1.74271 -6.6802 -11.0632
v -4.10674 -6.6802 -10.4707
v 1.08105 -6.6802 6.61033
v -7.0895 -6.6802 -10.5964
v -5.28318 -6.6802 -11.999
v 2.24438 -6.6802 -9.4879
v 3.22692 -6.6802 -11.8363
v 11.3619 -6.6802 -1.0063
v -10.9225 -6.6802 7.20633
v 12.3342 -6.6802 -2.93594
v 14.4109 -6.6802 -3.40531
v 14.0304 -6.6802 -1.92682
v -0.226138 -6.6802 8.59219
v -5.62303 -6.6802 8.11116
v -7.06343 -6.6802 10.276
v -3.44649 -6.6802 -12.871
v 13.3909 -6.6802 -4.56209
v -12.5398 -6.6802 5.59046
v 6.86722 -6.6802 -13.386
v -2.7092 -6.6802 12.7154
v 2.77184 -6.6802 14.7302
v -15.8352 -6.6802 -1.13239
v 10.1623 -6.6802 6.80126
v 8.66722 -6.6802 8.89789
v 9.05731 -6.6802 12.5454
v -1.88732 -6.6802 -6.49914
v -2.59219 -6.6802 -9.4105
v 2.36023 -6.6802 12.7185
v -6.22683 -6.6802 4.69357
v -10.3628 -6.6802 -6.80468
v -18.321 -6.6802 -1.83824
v -4.25911 -6.6802 6.03733
v -12.6983 -6.6802 13.3308
v -11.7128 -6.6802 -4.639
v -18.3912 -6.6802 0.952636
v -5.45331 -6.6802 -9.00453
v -4.91263 -6.6802 11.5956
v -0.786074 -6.6802 -8.41283
v -11.2009 -6.6802 3.86419
f 1 2 3 6
f 4 2 1 5
f 7 5 1 177
f 3 14 13 6
f 5 8 9 4
f 5 7 139 8
f 10 12 6 13
f 177 1 6 12
f 7 184 146 139
f 16 9 8 181
f 138 181 8 139
f 15 11 10 176
f 12 10 11 184
f 11 145 146 184
f 176 10 13 17
f 14 18 17 13
f 15 137 136 169
f 145 11 15 169
f 193 137 15 176
f 29 31 16 181
f 25 17 18 27
f 19 20 21 109
f 19 102 124 20
f 20 124 141 179
f 20 179 180 21
f 23 24 22 149
f 114 116 22 24
f 22 116 136 188
f 185 149 22 188
f 23 97 98 24
f 150 151 23 149
f 24 98 99 114
f 25 26 171 193
f 176 17 25 193
f 27 28 26 25
f 26 35 36 171
f 35 26 28 189
f 30 31 29 34
f 29 181 138 180
f 43 33 32 40
f 34 32 33 30
f 141 32 34 179
f 180 179 34 29
f 35 189 48 47
f 36 35 47 165
f 37 52 51 38
f 37 39 148 195
f 39 37 38 152
f 53 54 38 51
f 40 41 42 63
f 40 32 141 41
f 41 129 164 42
f 166 168 42 164
f 63 69 43 40
f 46 44 45 155
f 45 44 115 128
f 45 128 117 154
f 72 173 46 88
f 46 155 87 88
f 166 44 46 173
f 49 47 48 55
f 52 174 49 50
f 49 174 165 47
f 51 52 50 53
f 55 56 50 49
f 50 56 68 53
f 52 37 195 174
f 54 53 68 191
f 152 38 54 178
f 54 191 187 178
f 59 57 58 157
f 58 162 134 194
f 58 57 163 162
f 58 194 183 157
f 59 172 91 82
f 96 57 59 82
f 59 157 156 172
f 60 61 62 64
f 168 167 60 64
f 60 167 173 72
f 61 60 72 74
f 63 64 62 69
f 63 42 168 64
f 66 67 65 160
f 65 80 81 90
f 66 186 70 67
f 66 131 153 186
f 67 70 71 79
f 67 79 80 65
f 78 77 71 70
f 73 74 72 88
f 75 76 77 78
f 178 187 76 75
f 78 190 122 75
f 186 190 78 70
f 91 90 81 83
f 83 84 82 91
f 82 84 92 96
f 127 175 85 125
f 87 85 86 89
f 175 95 86 85
f 125 85 87 155
f 89 73 88 87
f 90 161 160 65
f 91 172 161 90
f 93 96 92 94
f 93 94 95 175
f 163 57 96 93
f 151 111 97 23
f 98 97 100 103
f 98 103 104 99
f 111 113 100 97
f 182 120 100 113
f 102 19 101 105
f 101 99 104 105
f 109 110 101 19
f 114 99 101 110
f 102 105 118 130
f 102 130 129 124
f 119 104 103 121
f 120 121 103 100
f 118 105 104 119
f 107 108 106 123
f 106 108 148 39
f 152 122 106 39
f 107 151 150 108
f 143 148 108 150
f 109 21 140 147
f 109 147 159 110
f 116 114 110 159
f 113 111 112 133
f 123 153 112 107
f 112 153 131 133
f 151 107 112 111
f 118 128 115 130
f 129 130 115 164
f 115 44 166 164
f 116 159 169 136
f 118 119 117 128
f 117 135 126 154
f 119 121 135 117
f 134 135 121 120
f 123 106 122 190
f 122 152 178 75
f 126 127 125 154
f 134 162 126 135
f 162 163 127 126
f 141 124 129 41
f 132 133 131 192
f 131 66 160 192
f 182 113 133 132
f 134 120 182 194
f 170 188 136 137
f 171 170 137 193
f 140 138 139 146
f 140 21 180 138
f 148 143 142 195
f 144 142 143 185
f 144 36 165 142
f 171 36 144 170
f 146 145 147 140
f 169 159 147 145
f 185 143 150 149
f 190 186 153 123
f 155 45 154 125
f 158 156 157 183
f 160 161 158 192
f 158 161 172 156
f 175 127 163 93
f 165 174 195 142
f 167 168 166 173
f 170 144 185 188
f 184 7 177 12
f 182 132 183 194
f 192 158 183 132
