v 4.098365 -6.6802 17.95612
v 5.098725 -6.6802 17.69808
v 6.083043 -6.6802 17.38435
v 3.08511 -6.6802 18.15767
v 3.385515 -6.6802 17.02068
v 4.334816 -6.6802 16.80404
v 5.269957 -6.6802 16.53467
v 6.188814 -6.6802 16.21307
v 7.048222 -6.6802 17.01592
v 2.062148 -6.6802 18.30209
v 2.425784 -6.6802 17.18388
v 2.573915 -6.6802 15.76214
v 4.37068 -6.6802 15.30386
v 6.028626 -6.6802 14.72192
v 7.088148 -6.6802 15.8404
v 7.991224 -6.6802 16.59395
v 1.032697 -6.6802 18.38892
v 1.458571 -6.6802 17.29294
v 0.6473132 -6.6802 15.92407
v 3.200346 -6.6802 13.92006
v 5.028362 -6.6802 13.00398
v 7.491661 -6.6802 14.30428
v 1.403088 -6.6802 13.94299
v 7.114234 -6.6802 12.69118
v 8.009493 -6.6802 15.51065
v -2.390307e-06 -6.6802 18.4179
v 0.4866518 -6.6802 17.35749
v 8.909082 -6.6802 16.11978
v -0.4833114 -6.6802 17.25475
v -0.4238397 -6.6802 14.39182
v 2.911988 -6.6802 11.60886
v 6.610389 -6.6802 10.32587
v 8.993231 -6.6802 13.3525
v 8.817054 -6.6802 14.94737
v -1.521818 -6.6802 15.85998
v -0.4123947 -6.6802 11.91039
v 8.681277 -6.6802 11.55742
v -1.032702 -6.6802 18.38892
v 9.79891 -6.6802 15.59488
v -1.459067 -6.6802 17.30287
v -2.268171 -6.6802 13.8434
v 1.036474 -6.6802 9.169018
v 3.906124 -6.6802 8.953561
v 9.779373 -6.6802 10.0395
v 10.48495 -6.6802 12.03571
v 9.686635 -6.6802 14.50135
v -2.425789 -6.6802 17.18388
v -3.183563 -6.6802 11.52456
v 5.94514 -6.6802 7.283044
v 10.43509 -6.6802 13.86635
v -2.062152 -6.6802 18.30209
v -3.336691 -6.6802 15.53224
v -1.786593 -6.6802 8.553454
v 9.10845 -6.6802 7.690927
v 10.65791 -6.6802 15.02092
v -4.38452 -6.6802 13.62808
v 2.126638 -6.6802 5.329401
v 11.50368 -6.6802 8.627441
v 11.75478 -6.6802 10.73733
v 11.19634 -6.6802 13.25914
v -3.085115 -6.6802 18.15767
v -3.385519 -6.6802 17.02068
v -5.907531 -6.6802 12.65673
v -5.25149 -6.6802 10.14805
v 7.065104 -6.6802 4.832148
v 11.92255 -6.6802 12.61038
v 11.48337 -6.6802 14.39969
v -4.899256 -6.6802 15.37108
v -1.90107 -6.6802 4.551845
v 12.24225 -6.6802 6.847953
v -4.33482 -6.6802 16.80404
v -5.282124 -6.6802 6.861522
v 10.44569 -6.6802 4.921745
v -6.25599 -6.6802 14.66491
v 0.6339757 -6.6802 0.1721845
v 5.671308 -6.6802 1.733621
v 13.60774 -6.6802 8.350424
v 12.91133 -6.6802 9.716556
v 12.61038 -6.6802 11.92256
v 12.2727 -6.6802 13.73316
v -4.09837 -6.6802 17.95612
v -7.693599 -6.6802 13.90638
v -7.485343 -6.6802 11.95627
v -7.564653 -6.6802 9.325034
v 9.605394 -6.6802 2.064184
v 13.25913 -6.6802 11.19635
v 13.02342 -6.6802 13.02342
v -5.303478 -6.6802 16.63952
v -6.188818 -6.6802 16.21307
v -5.057225 -6.6802 1.783861
v 13.13464 -6.6802 5.212547
v 14.39581 -6.6802 6.825995
v -5.09873 -6.6802 17.69808
v -9.168747 -6.6802 7.482765
v 12.42768 -6.6802 2.78032
v -7.088209 -6.6802 15.84053
v -7.965277 -6.6802 15.4182
v -4.423951 -6.6802 -2.418566
v 5.000754 -6.6802 -1.789974
v 8.909264 -6.6802 -1.171938
v 15.41798 -6.6802 7.965166
v 14.4293 -6.6802 9.641768
v 13.95169 -6.6802 10.49977
v 13.73316 -6.6802 12.2727
v -7.507123 -6.6802 4.838073
v -8.817058 -6.6802 14.94737
v -9.276563 -6.6802 13.07416
v -8.911382 -6.6802 11.23541
v -9.952344 -6.6802 9.987266
v -0.766476 -6.6802 -4.978641
v 12.03864 -6.6802 0.05537994
v 14.94737 -6.6802 8.817059
v 14.39969 -6.6802 11.48337
v -6.083048 -6.6802 17.38435
v -7.048226 -6.6802 17.01592
v -9.097228 -6.6802 2.003139
v -8.783008 -6.6802 -1.723113
v 3.384347 -6.6802 -4.841956
v 14.20693 -6.6802 3.423615
v 15.14337 -6.6802 5.081644
v 15.84053 -6.6802 7.08821
v -11.15065 -6.6802 8.884647
v -10.45496 -6.6802 5.428453
v 14.36868 -6.6802 0.9001324
v -7.991228 -6.6802 16.59395
v -8.909086 -6.6802 16.11977
v -7.057712 -6.6802 -5.503185
v -4.253336 -6.6802 -7.259037
v 7.656531 -6.6802 -4.755574
v 11.46816 -6.6802 -2.918378
v 16.21307 -6.6802 6.188819
v 16.59395 -6.6802 7.991229
v 16.11977 -6.6802 8.909087
v 15.59488 -6.6802 9.798915
v 15.02091 -6.6802 10.65791
v -11.94291 -6.6802 7.468239
v -9.798914 -6.6802 15.59488
v -9.641774 -6.6802 14.42931
v -10.70624 -6.6802 11.86387
v -11.85883 -6.6802 10.59812
v -1.090336 -6.6802 -9.0967
v 2.138882 -6.6802 -8.46766
v 14.02221 -6.6802 -1.534537
v -11.77549 -6.6802 3.445425
v -11.76944 -6.6802 0.5441867
v -10.35311 -6.6802 -5.290431
v 5.395003 -6.6802 -7.990804
v 15.66559 -6.6802 2.877654
v 16.54467 -6.6802 5.271707
v 17.01592 -6.6802 7.048227
v -10.43492 -6.6802 13.86613
v -12.96796 -6.6802 9.321662
v -13.0478 -6.6802 5.796458
v 15.90704 -6.6802 -0.7074966
v -11.19634 -6.6802 13.25913
v -12.19325 -6.6802 -1.54487
v -9.153116 -6.6802 -7.769675
v -7.120234 -6.6802 -9.17985
v -4.661559 -6.6802 -10.68252
v 8.839141 -6.6802 -7.78246
v 10.55166 -6.6802 -5.686694
v 14.00299 -6.6802 -3.527498
v 16.77265 -6.6802 4.326837
v 17.38434 -6.6802 6.083049
v -13.8712 -6.6802 7.852545
v -11.6929 -6.6802 -3.394991
v 16.07927 -6.6802 1.211879
v -10.65791 -6.6802 15.02091
v -11.92256 -6.6802 12.61038
v -12.61038 -6.6802 11.92256
v -13.25914 -6.6802 11.19634
v -1.936009 -6.6802 -11.821
v 1.12977 -6.6802 -11.68187
v 4.200559 -6.6802 -11.15647
v 13.02664 -6.6802 -5.209342
v 15.75435 -6.6802 -2.779703
v -13.92112 -6.6802 3.717113
v -13.95317 -6.6802 1.685573
v -14.33094 -6.6802 -0.5362555
v -13.16495 -6.6802 -5.150625
v -11.49653 -6.6802 -8.158532
v 7.325295 -6.6802 -9.99668
v 17.17479 -6.6802 2.419766
v 17.02068 -6.6802 3.38552
v 17.69808 -6.6802 5.098731
v -11.48337 -6.6802 14.39969
v -13.8664 -6.6802 10.43513
v -14.42927 -6.6802 9.641745
v -14.74566 -6.6802 6.576352
v 17.29299 -6.6802 -1.458574
v 17.34759 -6.6802 0.486726
v -12.2727 -6.6802 13.73316
v -14.15543 -6.6802 -2.985051
v -12.4174 -6.6802 -6.803805
v -10.69402 -6.6802 -9.54214
v -9.424307 -6.6802 -10.49682
v -6.837635 -6.6802 -12.36215
v -3.880932 -6.6802 -13.54065
v 10.13592 -6.6802 -10.00971
v 11.40028 -6.6802 -8.263366
v 12.51167 -6.6802 -6.907266
v 15.11049 -6.6802 -5.106579
v 17.95612 -6.6802 4.098371
v -14.94737 -6.6802 8.817055
v -15.12336 -6.6802 4.970001
v 17.3476 -6.6802 -0.4867194
v 17.38978 -6.6802 1.470884
v -13.02342 -6.6802 13.02342
v -13.73316 -6.6802 12.2727
v -14.39969 -6.6802 11.48337
v -15.41812 -6.6802 7.965234
v -8.127415 -6.6802 -11.47876
v -5.418863 -6.6802 -13.08419
v -2.387308 -6.6802 -14.14155
v -0.7879674 -6.6802 -14.10725
v 2.545017 -6.6802 -13.75554
v 6.272426 -6.6802 -12.54948
v 14.41388 -6.6802 -6.943396
v 16.80404 -6.6802 -4.334815
v 17.18388 -6.6802 -2.425783
v -15.73255 -6.6802 2.762017
v -15.90649 -6.6802 0.6413232
v -15.89962 -6.6802 -1.749991
v -15.00063 -6.6802 -5.272926
v -14.34373 -6.6802 -6.97368
v -13.46664 -6.6802 -8.462227
v -12.54236 -6.6802 -9.899099
v 8.368757 -6.6802 -11.86025
v 18.30209 -6.6802 2.062154
v 18.15767 -6.6802 3.085116
v -15.02092 -6.6802 10.65791
v -15.59488 -6.6802 9.798911
v -15.93582 -6.6802 7.131254
v -16.21287 -6.6802 6.188738
v 0.847973 -6.6802 -14.14598
v 4.328715 -6.6802 -13.66444
v 17.02068 -6.6802 -3.385513
v 18.30209 -6.6802 -2.062147
v 18.38892 -6.6802 -1.032696
v 18.4179 -6.6802 3.585451e-06
v 18.38892 -6.6802 1.032703
v -15.67241 -6.6802 -3.806634
v -11.33989 -6.6802 -11.33854
v -9.88312 -6.6802 -12.53466
v -8.41624 -6.6802 -13.56163
v -6.901129 -6.6802 -14.32962
v -5.352799 -6.6802 -15.03935
v -3.650476 -6.6802 -15.55726
v 10.49034 -6.6802 -11.87315
v 12.50034 -6.6802 -9.842273
v 13.46647 -6.6802 -8.462029
v 16.21306 -6.6802 -6.188808
v 16.53445 -6.6802 -5.269885
v -16.11978 -6.6802 8.909083
v -16.53467 -6.6802 5.269958
v -16.76323 -6.6802 4.32406
v -16.59395 -6.6802 7.991225
v -1.791402 -6.6802 -15.93542
v 0.06636043 -6.6802 -15.96341
v 1.779985 -6.6802 -15.80528
v 3.387066 -6.6802 -15.58751
v 6.254129 -6.6802 -14.6291
v 7.893404 -6.6802 -13.84928
v 11.7399 -6.6802 -11.09504
v 14.94737 -6.6802 -8.817053
v 17.69808 -6.6802 -5.098724
v 17.95612 -6.6802 -4.098364
v 18.15767 -6.6802 -3.085109
v -17.02068 -6.6802 3.385516
v -17.29299 -6.6802 1.458576
v -17.3476 -6.6802 -0.4867239
v -17.02054 -6.6802 -3.38549
v -16.53467 -6.6802 -5.269961
v -15.84053 -6.6802 -7.088208
v -14.94737 -6.6802 -8.817057
v -14.42931 -6.6802 -9.641773
v -13.25914 -6.6802 -11.19634
v 9.551394 -6.6802 -13.02446
v 15.84053 -6.6802 -7.088204
v -17.01592 -6.6802 7.048223
v -17.38435 -6.6802 6.083044
v 4.903541 -6.6802 -15.3801
v 15.4182 -6.6802 -7.965272
v -17.18385 -6.6802 2.425781
v -17.34758 -6.6802 0.4867212
v -17.29299 -6.6802 -1.458578
v -16.88604 -6.6802 -4.361387
v -16.21307 -6.6802 -6.188817
v -15.41816 -6.6802 -7.965256
v -13.8664 -6.6802 -10.43513
v -12.61038 -6.6802 -11.92256
v -11.19634 -6.6802 -13.25913
v -9.641772 -6.6802 -14.42931
v -7.965275 -6.6802 -15.4182
v -7.088207 -6.6802 -15.84053
v -5.26996 -6.6802 -16.53467
v -3.385517 -6.6802 -17.02068
v 11.18505 -6.6802 -13.25668
v 11.92256 -6.6802 -12.61038
v 13.2591 -6.6802 -11.19631
v 14.42931 -6.6802 -9.64177
v 17.01592 -6.6802 -7.04822
v 17.38435 -6.6802 -6.083042
v -17.69808 -6.6802 5.098727
v -17.95612 -6.6802 4.098366
v -17.18388 -6.6802 -2.425787
v -11.92254 -6.6802 -12.61036
v -10.43513 -6.6802 -13.8664
v -8.817056 -6.6802 -14.94737
v -6.188805 -6.6802 -16.21304
v -4.334818 -6.6802 -16.80404
v -2.425786 -6.6802 -17.18388
v -0.4867228 -6.6802 -17.3476
v 1.45856 -6.6802 -17.29273
v 2.425791 -6.6802 -17.18388
v 4.334822 -6.6802 -16.80403
v 6.188815 -6.6802 -16.21305
v 7.965279 -6.6802 -15.4182
v 9.641689 -6.6802 -14.42918
v 12.68712 -6.6802 -11.99489
v 13.8664 -6.6802 -10.43513
v 15.59488 -6.6802 -9.798909
v 16.11978 -6.6802 -8.909081
v -18.15767 -6.6802 3.085111
v -18.30209 -6.6802 2.062149
v -18.38892 -6.6802 1.032698
v -18.4179 -6.6802 -1.195151e-06
v -18.38892 -6.6802 -1.032701
v -18.15767 -6.6802 -3.085113
v -17.95612 -6.6802 -4.098369
v -17.69808 -6.6802 -5.098729
v -17.38435 -6.6802 -6.083047
v -17.01592 -6.6802 -7.048225
v -16.59395 -6.6802 -7.991227
v -16.11977 -6.6802 -8.909085
v -15.59488 -6.6802 -9.798913
v -15.02092 -6.6802 -10.65791
v -14.39969 -6.6802 -11.48337
v -13.73316 -6.6802 -12.2727
v 10.49914 -6.6802 -13.94235
v 16.59395 -6.6802 -7.991222
v -1.458577 -6.6802 -17.29299
v 0.486725 -6.6802 -17.3476
v 3.385521 -6.6802 -17.02068
v 5.303892 -6.6802 -16.6411
v 7.088211 -6.6802 -15.84053
v 8.81706 -6.6802 -14.94737
v -18.30209 -6.6802 -2.062151
v -13.02342 -6.6802 -13.02342
v -12.2727 -6.6802 -13.73316
v -11.48337 -6.6802 -14.39969
v -10.65791 -6.6802 -15.02092
v -9.798912 -6.6802 -15.59488
v -8.909084 -6.6802 -16.11977
v -7.991226 -6.6802 -16.59395
v -7.048224 -6.6802 -17.01592
v -6.083045 -6.6802 -17.38435
v -5.098728 -6.6802 -17.69808
v -4.098367 -6.6802 -17.95612
v -3.085112 -6.6802 -18.15767
v 11.48337 -6.6802 -14.39969
v 12.27271 -6.6802 -13.73316
v 13.02342 -6.6802 -13.02342
v 13.73316 -6.6802 -12.2727
v 14.39969 -6.6802 -11.48337
v 15.02092 -6.6802 -10.6579
v -2.06215 -6.6802 -18.30209
v -1.0327 -6.6802 -18.38892
v -5.970815e-12 -6.6802 -18.4179
v 1.032704 -6.6802 -18.38892
v 2.062155 -6.6802 -18.30209
v 3.085117 -6.6802 -18.15767
v 4.098372 -6.6802 -17.95612
v 5.098732 -6.6802 -17.69807
v 6.08305 -6.6802 -17.38434
v 7.048228 -6.6802 -17.01592
v 7.99123 -6.6802 -16.59395
v 8.909088 -6.6802 -16.11977
v 9.798916 -6.6802 -15.59488
v 10.65791 -6.6802 -15.02091
f 5 1 4
f 6 2 1
f 7 3 2
f 6 1 5
f 7 2 6
f 8 3 7
f 11 5 4
f 9 3 8
f 11 4 10
f 12 5 11
f 13 6 5
f 13 7 6
f 14 8 7
f 13 5 12
f 14 7 13
f 15 8 14
f 15 9 8
f 18 11 10
f 18 12 11
f 16 9 15
f 18 10 17
f 19 12 18
f 20 13 12
f 21 14 13
f 22 15 14
f 23 12 19
f 21 13 20
f 24 14 21
f 25 15 22
f 25 16 15
f 27 18 17
f 27 19 18
f 23 20 12
f 24 22 14
f 28 16 25
f 27 17 26
f 29 19 27
f 30 23 19
f 31 20 23
f 31 21 20
f 32 24 21
f 33 22 24
f 34 25 22
f 35 19 29
f 36 23 30
f 32 21 31
f 37 24 32
f 34 22 33
f 28 25 34
f 29 27 26
f 35 30 19
f 36 31 23
f 37 33 24
f 39 28 34
f 29 26 38
f 40 35 29
f 41 30 35
f 41 36 30
f 42 31 36
f 43 32 31
f 44 37 32
f 45 33 37
f 46 34 33
f 40 29 38
f 47 35 40
f 48 36 41
f 43 31 42
f 49 32 43
f 45 37 44
f 50 33 45
f 39 34 46
f 52 41 35
f 53 42 36
f 54 44 32
f 50 46 33
f 52 35 47
f 53 36 48
f 54 32 49
f 55 39 46
f 40 38 51
f 51 47 40
f 56 41 52
f 56 48 41
f 57 42 53
f 57 43 42
f 57 49 43
f 58 44 54
f 59 45 44
f 60 50 45
f 55 46 50
f 61 47 51
f 62 52 47
f 63 48 56
f 64 53 48
f 65 49 57
f 65 54 49
f 59 44 58
f 66 45 59
f 67 50 60
f 68 56 52
f 69 57 53
f 70 58 54
f 66 60 45
f 67 55 50
f 62 47 61
f 71 52 62
f 64 48 63
f 72 53 64
f 73 54 65
f 74 56 68
f 74 63 56
f 75 57 69
f 76 65 57
f 77 58 70
f 78 59 58
f 79 66 59
f 80 60 66
f 80 67 60
f 68 52 71
f 69 53 72
f 70 54 73
f 81 62 61
f 81 71 62
f 82 63 74
f 83 64 63
f 84 72 64
f 76 57 75
f 85 65 76
f 85 73 65
f 78 58 77
f 86 59 78
f 87 66 79
f 88 68 71
f 89 74 68
f 90 69 72
f 90 75 69
f 91 70 73
f 92 77 70
f 86 79 59
f 87 80 66
f 93 71 81
f 83 63 82
f 84 64 83
f 94 72 84
f 95 73 85
f 89 68 88
f 96 74 89
f 97 82 74
f 98 75 90
f 99 76 75
f 100 85 76
f 92 70 91
f 101 77 92
f 102 78 77
f 103 86 78
f 104 79 86
f 104 87 79
f 88 71 93
f 105 72 94
f 105 90 72
f 91 73 95
f 97 74 96
f 106 82 97
f 107 83 82
f 108 84 83
f 109 94 84
f 110 75 98
f 100 76 99
f 111 85 100
f 111 95 85
f 112 77 101
f 103 78 102
f 113 86 103
f 114 88 93
f 114 89 88
f 115 96 89
f 116 90 105
f 117 98 90
f 118 99 75
f 119 91 95
f 120 92 91
f 121 101 92
f 112 102 77
f 113 104 86
f 107 82 106
f 108 83 107
f 109 84 108
f 122 94 109
f 123 105 94
f 118 75 110
f 124 95 111
f 115 89 114
f 125 96 115
f 125 97 96
f 126 106 97
f 117 90 116
f 127 98 117
f 128 110 98
f 129 99 118
f 129 100 99
f 130 111 100
f 120 91 119
f 131 92 120
f 132 101 121
f 133 112 101
f 134 102 112
f 135 103 102
f 135 113 103
f 136 94 122
f 116 105 123
f 119 95 124
f 131 121 92
f 126 97 125
f 137 106 126
f 138 107 106
f 139 108 107
f 139 109 108
f 140 122 109
f 136 123 94
f 128 98 127
f 141 110 128
f 142 118 110
f 130 100 129
f 143 111 130
f 143 124 111
f 133 101 132
f 134 112 133
f 135 102 134
f 144 116 123
f 145 117 116
f 146 127 117
f 147 129 118
f 148 119 124
f 148 120 119
f 149 131 120
f 150 121 131
f 150 132 121
f 138 106 137
f 151 107 138
f 140 109 139
f 152 122 140
f 152 136 122
f 153 123 136
f 142 110 141
f 147 118 142
f 154 124 143
f 155 139 107
f 145 116 144
f 156 117 145
f 157 127 146
f 158 128 127
f 159 141 128
f 160 129 147
f 161 130 129
f 162 143 130
f 163 120 148
f 164 131 149
f 155 107 151
f 165 136 152
f 144 123 153
f 166 146 117
f 167 124 154
f 167 148 124
f 163 149 120
f 164 150 131
f 168 138 137
f 168 151 138
f 169 139 155
f 170 140 139
f 171 152 140
f 165 153 136
f 166 117 156
f 158 127 157
f 159 128 158
f 172 141 159
f 173 142 141
f 174 147 142
f 161 129 160
f 175 130 161
f 176 143 162
f 176 154 143
f 177 144 153
f 178 145 144
f 179 156 145
f 180 146 166
f 181 157 146
f 182 160 147
f 175 162 130
f 183 148 167
f 184 163 148
f 185 149 163
f 185 164 149
f 186 151 168
f 186 155 151
f 170 139 169
f 171 140 170
f 187 152 171
f 188 165 152
f 189 153 165
f 173 141 172
f 174 142 173
f 182 147 174
f 190 154 176
f 191 167 154
f 192 169 155
f 178 144 177
f 179 145 178
f 193 156 179
f 193 166 156
f 194 146 180
f 195 157 181
f 196 158 157
f 197 159 158
f 198 172 159
f 199 160 182
f 200 161 160
f 201 175 161
f 202 162 175
f 202 176 162
f 184 148 183
f 203 163 184
f 192 155 186
f 188 152 187
f 204 165 188
f 205 153 189
f 205 177 153
f 193 180 166
f 194 181 146
f 206 154 190
f 207 167 191
f 207 183 167
f 203 185 163
f 208 169 192
f 208 170 169
f 209 171 170
f 210 187 171
f 211 189 165
f 196 157 195
f 212 158 196
f 213 159 197
f 214 172 198
f 215 173 172
f 216 174 173
f 217 182 174
f 200 160 199
f 201 161 200
f 218 175 201
f 219 176 202
f 220 190 176
f 206 191 154
f 211 165 204
f 221 177 205
f 221 178 177
f 222 179 178
f 223 193 179
f 224 180 193
f 225 194 180
f 226 181 194
f 227 195 181
f 212 197 158
f 213 198 159
f 228 199 182
f 218 202 175
f 229 183 207
f 230 184 183
f 230 203 184
f 209 170 208
f 210 171 209
f 231 187 210
f 231 188 187
f 232 204 188
f 233 189 211
f 234 205 189
f 215 172 214
f 235 173 215
f 236 174 216
f 228 182 217
f 237 176 219
f 238 190 220
f 239 206 190
f 240 191 206
f 241 207 191
f 222 178 221
f 223 179 222
f 242 193 223
f 225 180 224
f 226 194 225
f 227 181 226
f 243 195 227
f 243 196 195
f 244 212 196
f 245 197 212
f 246 213 197
f 247 198 213
f 248 214 198
f 235 216 173
f 236 217 174
f 249 199 228
f 250 200 199
f 251 201 200
f 251 218 201
f 252 202 218
f 253 219 202
f 237 220 176
f 230 183 229
f 232 188 231
f 254 204 232
f 254 211 204
f 234 189 233
f 255 205 234
f 256 221 205
f 242 224 193
f 239 190 238
f 240 206 239
f 241 191 240
f 229 207 241
f 257 233 211
f 244 196 243
f 245 212 244
f 246 197 245
f 247 213 246
f 248 198 247
f 258 214 248
f 258 215 214
f 259 235 215
f 260 216 235
f 261 236 216
f 262 217 236
f 263 228 217
f 264 199 249
f 251 200 250
f 265 218 251
f 253 202 252
f 266 219 253
f 267 237 219
f 268 220 237
f 268 238 220
f 257 211 254
f 256 205 255
f 269 221 256
f 270 222 221
f 271 223 222
f 272 242 223
f 273 224 242
f 274 225 224
f 275 226 225
f 276 227 226
f 277 243 227
f 278 249 228
f 264 250 199
f 279 252 218
f 280 233 257
f 280 234 233
f 281 255 234
f 259 215 258
f 260 235 259
f 261 216 260
f 282 236 261
f 263 217 262
f 278 228 263
f 283 218 265
f 267 219 266
f 268 237 267
f 284 221 269
f 285 222 270
f 286 223 271
f 287 242 272
f 288 224 273
f 289 225 274
f 276 226 275
f 290 227 276
f 291 243 277
f 292 244 243
f 293 245 244
f 294 246 245
f 295 247 246
f 296 248 247
f 297 258 248
f 282 262 236
f 298 249 278
f 299 264 249
f 300 250 264
f 301 251 250
f 301 265 251
f 302 252 279
f 303 253 252
f 303 266 253
f 281 234 280
f 304 255 281
f 304 256 255
f 305 269 256
f 284 270 221
f 285 271 222
f 306 272 223
f 287 273 242
f 288 274 224
f 289 275 225
f 290 277 227
f 279 218 283
f 306 223 286
f 307 243 291
f 308 244 292
f 309 245 293
f 295 246 294
f 310 247 295
f 311 248 296
f 312 258 297
f 313 259 258
f 314 260 259
f 315 261 260
f 316 282 261
f 317 262 282
f 318 263 262
f 319 278 263
f 299 249 298
f 320 264 299
f 321 250 300
f 322 265 301
f 323 283 265
f 303 252 302
f 305 256 304
f 324 269 305
f 324 284 269
f 325 270 284
f 326 285 270
f 327 271 285
f 328 286 271
f 329 272 306
f 330 287 272
f 331 273 287
f 332 288 273
f 333 274 288
f 334 289 274
f 335 275 289
f 336 276 275
f 337 290 276
f 338 277 290
f 339 291 277
f 307 292 243
f 308 293 244
f 309 294 245
f 310 296 247
f 311 297 248
f 340 298 278
f 320 300 264
f 321 301 250
f 341 279 283
f 341 302 279
f 342 258 312
f 343 259 313
f 315 260 314
f 344 261 315
f 345 282 316
f 346 262 317
f 347 263 318
f 340 278 319
f 323 265 322
f 341 283 323
f 325 284 324
f 326 270 325
f 327 285 326
f 328 271 327
f 348 286 328
f 348 306 286
f 330 272 329
f 331 287 330
f 332 273 331
f 333 288 332
f 334 274 333
f 335 289 334
f 336 275 335
f 337 276 336
f 338 290 337
f 339 277 338
f 349 291 339
f 349 307 291
f 350 292 307
f 351 308 292
f 352 293 308
f 353 309 293
f 354 294 309
f 355 295 294
f 356 310 295
f 357 296 310
f 358 311 296
f 359 297 311
f 360 312 297
f 342 313 258
f 343 314 259
f 344 316 261
f 345 317 282
f 346 318 262
f 347 319 263
f 361 298 340
f 362 299 298
f 363 320 299
f 364 300 320
f 365 321 300
f 366 301 321
f 366 322 301
f 348 329 306
f 350 307 349
f 351 292 350
f 352 308 351
f 353 293 352
f 354 309 353
f 355 294 354
f 356 295 355
f 357 310 356
f 358 296 357
f 359 311 358
f 360 297 359
f 367 312 360
f 367 342 312
f 368 313 342
f 369 343 313
f 370 314 343
f 371 315 314
f 372 344 315
f 373 316 344
f 374 345 316
f 375 317 345
f 376 346 317
f 377 318 346
f 378 347 318
f 379 319 347
f 380 340 319
f 362 298 361
f 363 299 362
f 364 320 363
f 365 300 364
f 366 321 365
f 380 361 340
f 368 342 367
f 369 313 368
f 370 343 369
f 371 314 370
f 372 315 371
f 373 344 372
f 374 316 373
f 375 345 374
f 376 317 375
f 377 346 376
f 378 318 377
f 379 347 378
f 380 319 379
