# Rhino

mtllib tri_mesh.mtl
usemtl diffuse_ControlText
v -9.6382555202325157 -0.028564875779891863 9.9691184944995879
v 0.36174447976748425 -0.028564875779891863 9.9691184944995879
v 20.361744479767484 -0.023540067693182565 -10.030880874282992
v 10.361744479767484 -0.021027663649827943 -20.030880558674284
v -9.6382555202325157 -0.026052471736537242 -0.030881189891700744
v -9.6382555202325157 -0.023540067693182565 -10.030880874282992
v 0.36174447976748425 -0.026052471736537242 -0.030881189891700744
v 10.361744479767484 -0.026052471736537242 -0.030881189891700744
v 10.361744479767484 -0.023540067693182565 -10.030880874282992
v 0.36174447976748425 -0.023540067693182565 -10.030880874282992
vt 0 1
vt 0 1
vt 0 1
vt 0 1
vt 0 1
vt 0 1
vt 0 1
vt 0 1
vt 0 1
vt 0 1
vn 0 0.99999994039535522 0.00025124027160927653
vn 0 0.99999994039535522 0.00025124027160927653
vn 0 0.99999994039535522 0.00025124027160927653
vn 0 0.99999994039535522 0.00025124027160927653
vn 0 0.99999994039535522 0.00025124027160927653
vn 0 0.99999994039535522 0.00025124027160927653
vn 0 0.99999994039535522 0.00025124027160927653
vn 0 0.99999994039535522 0.00025124027160927653
vn 0 0.99999994039535522 0.00025124027160927653
vn 0 0.99999994039535522 0.00025124027160927653
f 7/7/7 5/5/5 1/1/1
f 8/8/8 7/7/7 2/2/2
f 9/9/9 8/8/8 3/3/3
f 10/10/10 9/9/9 4/4/4
f 10/10/10 6/6/6 5/5/5
f 7/7/7 8/8/8 9/9/9
f 7/7/7 1/1/1 2/2/2
f 10/10/10 5/5/5 7/7/7
f 7/7/7 9/9/9 10/10/10
